<svg id="Layer_1" data-name="Layer 1" xmlns="http://www.w3.org/2000/svg" viewBox="0 0 455.71 558.58"><defs><style>.cls-1{fill:#575756;stroke:#c6c6c6;stroke-miterlimit:10;stroke-width:23px;}.cls-2{fill:#3c3c3b;}.cls-3{fill:#f6f6f6;}.cls-4{fill:#c6c6c6;}</style></defs><polygon class="cls-1" points="268.75 132.48 199.28 226.81 82.85 213.83 35.89 106.5 105.35 12.16 221.78 25.15 268.75 132.48"/><polygon class="cls-1" points="431.73 252.93 362.27 347.27 245.84 334.28 198.87 226.96 268.33 132.62 384.76 145.61 431.73 252.93"/><polygon class="cls-1" points="246.06 334.19 176.59 428.53 60.16 415.54 13.2 308.21 82.66 213.88 199.09 226.86 246.06 334.19"/><path class="cls-2" d="M473.33,282.88a44.5,44.5,0,0,1,25-19.79c8.08-2.53,23.61-4.72,29.55,3.29,3.36,4.53,1.63,11.86.52,16.92a102,102,0,0,1-5.41,17c-4.21,10.24-9.67,19.93-14.76,29.74-10.54,20.33-19.39,41.56-15.78,64.91,4.07,26.29,21.9,49.34,21.84,76.42-.06,26.08-24.19,43.91-48.57,46.28-22.52,2.18-46.58-11.17-50-35.06-1.73-12.08,4.77-23.77,2.3-35.86-2-9.84-10-19.22-20.79-18.43-10.45.77-15.2,10.15-21.18,17.27-6.51,7.75-17.57,8.52-23.9,0-3.25-4.4-5.54-9.38-9.85-12.92a21.92,21.92,0,0,0-15.22-4.82c-10.7.62-19.83,7.51-24.44,17-5.74,11.86-4.89,25-4.21,37.78.67,12.55-.3,24.24-6.25,35.53-11.8,22.37-34.63,35.12-58.51,41-18.49,4.51-49.48,9.93-62.16-9-6.24-9.35-5.31-21.6-2.77-32,2.74-11.29,10.9-23.91,5.71-35.61-4.62-10.42-16.16-11.72-25.06-16.78-10.2-5.78-17.3-15.64-23.43-25.36-5.46-8.66-14.59-19.79-5.33-29,10.09-10,26.12-5.45,38.12-2.3,13.35,3.52,26.55,7.52,39.72,11.69,12.28,3.9,25.2,7.71,38.24,6.85,11.3-.75,22.91-4.65,30.93-13,8.72-9,10.62-21.29,13.82-32.91,5.8-21,19.43-40.43,39-50.62,12-6.25,25.62-7.78,39-7.75a322.22,322.22,0,0,1,41.52,3c7.05.93,14.06,2.09,21,3.43,6.79,1.3,13.79,3.4,20.75,3,11.57-.63,20.29-8.27,25-18.48,5.4-11.58,5.08-24.61,8.85-36.67,2.31-7.39-9.28-10.55-11.58-3.19-3.92,12.57-2.72,27.54-10.36,38.76-8.7,12.77-24.59,5.75-37,3.62a394.07,394.07,0,0,0-43.34-5c-14.6-.87-29.58-1.05-43.85,2.66-22.88,5.94-41.5,22.78-52.43,43.43-5.7,10.77-8.23,22.13-11.56,33.74-3.72,13-12.09,20.95-25.46,23.36-13.61,2.45-27.45-2.08-40.28-6.17-14.06-4.48-28.2-8.75-42.52-12.36-13.15-3.32-28.34-5.83-40.51,1.91-9.51,6.06-15.53,16.77-12.59,28.09,1.55,6,5.22,11.37,8.41,16.58a163.8,163.8,0,0,0,10.86,15.89c7.27,9.24,16,16.37,26.92,20.76,4.45,1.78,11.35,3.45,12.6,8.85,1.42,6.08-2.77,13.15-4.62,18.75-3.69,11.21-5.77,23.36-3.57,35.09,4.8,25.57,30.46,33.86,53.5,32.53,25.88-1.5,52.83-9.44,73-26.11A80.6,80.6,0,0,0,303.9,521.4c5.9-12.5,7.27-25.18,6.54-38.87-.64-12-2.58-26.92,5.74-36.89,3.18-3.81,8.47-6.49,13.51-5.9,5.87.68,8.35,6.16,11.28,10.56,6.32,9.49,16.08,14.95,27.71,13,11.9-2,16.32-11.23,23.62-19.32,2.57-2.84,5.91-5.31,9.55-2.66,5.14,3.74,5.16,11.18,4.38,16.76-.88,6.3-2.64,12.46-2.79,18.85a45.94,45.94,0,0,0,3,17.06c8.7,23.08,31.8,36.77,56.09,35.79s50.5-15,60-38.27c11.16-27.32-4.37-55-13.33-80.34-4.34-12.31-7.13-25.1-4.84-38.13,2.05-11.65,6.89-22.51,12.2-33,10.32-20.39,24.74-42.28,25.14-65.94.48-28.93-35.65-28.4-54.64-19.42A56,56,0,0,0,463,276.83c-3.94,6.66,6.43,12.7,10.37,6.05Z" transform="translate(-87.51 -16.41)"/><path class="cls-2" d="M475.33,284.29c-2.76-7.62-1.55-15.22.34-22.9s4.14-15.3,6.58-22.83c2.76-8.53,7.86-31.66,21.41-25.39,10.95,5.07,19.26,18.16,23.36,29.05A64.18,64.18,0,0,1,529.56,280c-1.81,7.5,9.75,10.7,11.57,3.19a76.79,76.79,0,0,0-18.43-70c-8.62-9.15-22.2-18.05-34.45-9.88-10.62,7.08-14.2,21.6-17.87,33-5,15.64-12.54,34.89-6.62,51.21,2.62,7.2,14.22,4.1,11.57-3.19Z" transform="translate(-87.51 -16.41)"/><path class="cls-2" d="M463.73,265.13a199.42,199.42,0,0,1-3.8,31.76c-1,4.72-1.71,10.1-4,14.42s-6.19,7.26-9.8,10.22c-6,4.9,2.56,13.35,8.49,8.49,4.05-3.33,8.07-6.8,10.88-11.3,3.15-5,4.36-11.09,5.59-16.82a218.64,218.64,0,0,0,4.61-36.77c.32-7.72-11.68-7.7-12,0Z" transform="translate(-87.51 -16.41)"/><path class="cls-2" d="M467.09,320.22a181.92,181.92,0,0,1,12.77-86.57c2.79-6.81,7.87-21.41,17.68-19.48,7.54,1.49,10.77-10.07,3.19-11.57-11.23-2.22-20.39,4.32-25.92,13.73-5.87,10-9.81,21.72-13,32.82a193.4,193.4,0,0,0-6.7,71.07c.69,7.62,12.7,7.7,12,0Z" transform="translate(-87.51 -16.41)"/><path class="cls-2" d="M461.78,295.12c-4.38,15.42-13.86,28-30.21,31.12-7.57,1.46-4.37,13,3.19,11.57,20.35-3.93,33.15-20.33,38.59-39.5,2.12-7.44-9.46-10.62-11.57-3.19Z" transform="translate(-87.51 -16.41)"/><path class="cls-2" d="M439.06,336.87c21.92-7.52,27.88-30.48,29.84-51.2.73-7.69-11.28-7.64-12,0-1.39,14.75-4.92,34.1-21,39.63-7.26,2.49-4.14,14.09,3.19,11.57Z" transform="translate(-87.51 -16.41)"/><path class="cls-2" d="M482.64,273.22c2.67-14.76,5.4-30.76,15.41-42.56l-10.25-4.24A78.18,78.18,0,0,1,476.29,262l11,4.62c1.88-12.77,5.78-25,9.79-37.25,2.41-7.37-9.1-10.46-11.57-3.19-2.35,6.91-4.77,13.7-10.39,18.66l10.24,4.24A57.11,57.11,0,0,1,494.09,223l-11-1.43a13.77,13.77,0,0,1,.33,10.27l11.78,1.59c-.37-3.71-.12-8.38,3.1-10.87l-5.84,1.54,1.13.45L490,221.79c3.28,5.21,5.36,11.56,7.86,17.19l10.36-6.06c-2.21-3-3-6.26-1.19-9.71H496.71a49.21,49.21,0,0,1,8.68,19.27l10-5.84a27.15,27.15,0,0,1-4.33-7.31,29.74,29.74,0,0,1-1-3.17,18.63,18.63,0,0,1-.5-2.47c0-1.26-.28-1.14-.8.34h-8.49a11.47,11.47,0,0,1,3.83,10.3l9-5.18a4.48,4.48,0,0,1-1.79-2.68c-.53-2.17,1.18-2.93-1.14-1.3l-4.62.6c-1-.93-.85-.66.52.81l1.19,1.55c1,1.41,2,2.9,2.86,4.4a68.4,68.4,0,0,1,5.18,10.34c2.91,7.64,1.53,13.87-1.59,21.17l11.18,3q-.11-14.53-1.36-29c-.66-7.58-12.37-7.81-12,0a147.67,147.67,0,0,1-1,22.83c-.46,4.3-.16,12.11-4.72,14.36l8.21,2.15a56.07,56.07,0,0,1-4.83-16.81c-.91-7.58-12.92-7.67-12,0a74,74,0,0,0,6.47,22.87c1.44,3.08,5.53,3.47,8.21,2.15,6.84-3.38,8.93-10.76,9.85-17.77,1.3-9.86,2.29-19.83,1.83-29.78h-12q1.24,14.49,1.36,29c0,5.5,8.72,8.78,11.18,3,3.69-8.62,6.41-16.82,4.12-26.25-2.06-8.46-6.81-16.92-12.08-23.77-2.27-3-4.81-6.25-9-6.08-3.84.15-6.33,3.31-7.33,6.76-2.13,7.33,1.18,14.55,7.24,18.76,4.07,2.83,8.65-1.06,9-5.18a22.69,22.69,0,0,0-7.34-18.78,6.13,6.13,0,0,0-8.49,0c-8,7.54,1.28,23.09,6.61,29.58,4.1,5,11.17-.51,10-5.84a57.65,57.65,0,0,0-9.89-22.14c-2.48-3.38-8.09-4.35-10.36,0-3.67,7-3.58,15.33,1.19,21.83,4.59,6.26,13.51,1,10.36-6.06-2.11-4.73-4.07-9.57-6.33-14.23-1.76-3.63-4.76-7.45-9.44-6.16-7.66,2.12-9.92,14.32-9.26,20.9s9.55,8.3,11.79,1.6a24.2,24.2,0,0,0-.33-16.65c-1.83-4.73-8.06-6.09-11-1.44a70.08,70.08,0,0,0-10.4,32.14c-.43,5.56,6.66,7.4,10.25,4.24,7.13-6.3,10.48-15.16,13.47-23.95l-11.57-3.19c-4,12.23-7.91,24.48-9.79,37.25-.94,6.39,7.16,10.84,11,4.62a91,91,0,0,0,13.15-41.63c.35-5-6.93-8.15-10.24-4.24C478,235.79,474.17,252.9,471.07,270c-1.37,7.55,10.19,10.79,11.57,3.19Z" transform="translate(-87.51 -16.41)"/><path class="cls-2" d="M483.22,330.18q1.92,1.13.69,0l11-8.47c-3.14-2.22-1.3-12-.86-15.09a62.27,62.27,0,0,1,6.61-20.05l-14-3.79A99.18,99.18,0,0,1,485,311.9h14.46a80,80,0,0,1,3.33-45.69H488.28c2,7.24.24,14.34-3.1,20.9l14,3.78a78.32,78.32,0,0,1,7.47-43.22l-13.71-1.8L495,255.5l13.71-5.78a32.91,32.91,0,0,1-2.74-16.2c.44-5.77,3.61-11.06,2.95-16.92l-12.8,5.31c11.29,10.41,21.63,20.82,24.46,36.53,2.65,14.75-.69,30.16-4.94,44.28-9.22,30.58-25.91,58.17-42.26,85.36l13.71,5.78a608.31,608.31,0,0,0,27-105.19c1.29-7.89-9.23-13.71-13.71-5.78-11.7,20.71-16.52,44-20.92,67.08-1.79,9.37,11.79,13.4,14.46,4l19.74-69.47-14.73-2-2.16,42.83c-.42,8.29,13.37,10.42,14.73,2l8.19-50.8H505.23a65.94,65.94,0,0,1-2.18,33h14.47a91.12,91.12,0,0,1,.21-34.64l-14.74-2,1.54,21.38,14.73-2a385.44,385.44,0,0,1-3.82-55.88l-14.73,2,5.09,36,9.23-9.23c-3.73-.69-4.23-5.34-4.74-8.52-.84-5.26-1.54-10-4.09-14.81l-10.26,10.26c4.05,2.53,4.8,7.54,4.77,12-.06,6.71-1.39,13.47-2.26,20.11-.3,2.32-.23,5.42-1.31,7.53-.89,1.72-2.69,2.68-4.26,3.73-5.08,3.39-10.26,6.84-16,9l9.49,7.23,6.53-49.5c1.11-8.4-12.85-10.12-14.73-2l-7.46,32.14-3.51,15.12-2,8.51c-.29,1.26-.62,2.52-.88,3.78-.32,1.62-.58,1.06-.14.85l3.79-1h-.87l3.79,1-.81-.53,3.45,8.47q8.54-28.11,17.09-56.21c2.85-9.37-11.15-12.89-14.46-4q-14.7,39.48-25.73,80.18c-2.55,9.4,11.38,13.07,14.46,4L483.07,299c3.13-9.2-11.21-13-14.46-4q-13.94,38.64-29.88,76.5c-3.3,7.82,9.85,13.27,13.7,5.78L487.1,310l-13.71-5.78-19.61,68.22c-2.7,9.37,11.33,13,14.46,4l15.66-45.17-14.73-2L467.79,359c-.26,5.55,6.62,9.55,11.28,6.48a20.71,20.71,0,0,0,9.83-17.89c-.06-9.64-15.06-9.67-15,0a5.29,5.29,0,0,1-2.4,4.94L482.79,359l1.38-29.78c.41-8.84-12.08-9.65-14.73-2l-15.66,45.16,14.46,4,19.62-68.22c2.3-8-9.76-13.46-13.71-5.78l-34.67,67.3,13.71,5.78q15.94-37.86,29.88-76.5l-14.46-4-18.18,53.5,14.46,4q11-40.67,25.73-80.18l-14.46-4-17.1,56.21a7.67,7.67,0,0,0,3.45,8.47c5.5,3.6,11.72.35,14.64-4.87,3.26-5.83,3.87-14,5.37-20.48l10.09-43.48-14.73-2-6.53,49.5c-.61,4.64,5.32,8.78,9.5,7.23a94.11,94.11,0,0,0,22.61-12.56c7.21-5.28,8.63-11.75,9.75-20.26,2.11-16.13,6.81-36.61-9.7-46.93-6.61-4.14-13.66,3.9-10.26,10.26,3,5.59,2.1,12.53,4.57,18.4s6.87,10.66,13.22,11.82c6.06,1.12,10.06-3.38,9.23-9.22l-5.1-36c-1.2-8.51-14.71-6.23-14.73,2a412.24,412.24,0,0,0,4.36,59.87c1.2,8.32,15.34,6.41,14.73-2L518,272.85c-.56-7.9-13-10.8-14.73-2a111.32,111.32,0,0,0-.21,42.62c1.45,7.71,12.38,6.53,14.47,0a82.11,82.11,0,0,0,2.18-41c-1.37-7-13.29-7.28-14.47,0l-8.18,50.8,14.73,2,2.16-42.83c.43-8.58-12.46-10-14.73-2L479.47,350l14.46,4c4.15-21.78,8.39-44,19.41-63.5l-13.71-5.78a606.5,606.5,0,0,1-27,105.19c-2.9,8.18,9.44,12.89,13.71,5.78,17.92-29.8,36.08-60.25,45.25-94.09,4.34-16,6.69-33.16,2.95-49.57-3.88-17-15.36-29.21-27.81-40.69-4.29-4-13.58-1.6-12.8,5.3.36,3.22-1.19,6.12-1.88,9.23a49.4,49.4,0,0,0-1.17,11,50.5,50.5,0,0,0,4.89,20.49c3.67,8.09,15.4,2.12,13.7-5.78l-2.07-9.62c-1.32-6.13-10.88-7.51-13.71-1.79a92.53,92.53,0,0,0-9.52,50.79c.69,6.71,10.28,11.08,14,3.79,5.16-10.17,7.62-21.24,4.61-32.45-2.05-7.6-12-6.62-14.47,0A94.4,94.4,0,0,0,485,315.89c1.6,7.1,12.92,7.2,14.46,0a113.32,113.32,0,0,0,2.28-33.11c-.56-6.87-10.25-10.89-14-3.78a79.42,79.42,0,0,0-9,30.94c-.74,9.45.42,18.89,8.65,24.72,5.25,3.72,13.11-2.48,11-8.47-1.38-3.95-3.65-7.22-7.58-9-3.72-1.66-8-1.06-10.26,2.69-1.9,3.18-1,8.62,2.69,10.26Z" transform="translate(-87.51 -16.41)"/><path class="cls-2" d="M525.47,284a80.6,80.6,0,0,0-9.13-31.77c-4.51-8.54-17.46-1-13,7.57a62,62,0,0,1,7.08,24.2c.75,9.56,15.76,9.65,15,0Z" transform="translate(-87.51 -16.41)"/><path class="cls-2" d="M473,395.05c5.56,4.13,8.51,10.28,9.59,17l13.71-5.78a55.53,55.53,0,0,1-6.13-35.34H475.73c6,32,22,61.44,26.25,93.79,1.54,11.83,3.48,32-7.36,40.45-5.94,4.61-15.08,4.85-22.24,4.79a77.14,77.14,0,0,1-25.45-4.79c-9.1-3.27-13,11.22-4,14.46a88.08,88.08,0,0,0,44.64,4.08c14.16-2.46,24.18-11.69,28-25.51,7.58-27.51-2.74-57.84-11.57-83.75-5.32-15.63-10.76-31.24-13.81-47.51-1.33-7.07-13.28-7.24-14.47,0a72.41,72.41,0,0,0,7.65,46.9c4.32,8,15,2.11,13.71-5.78-1.74-10.73-7.87-19.53-16.49-25.93-3.28-2.43-8.34-.51-10.26,2.69-2.28,3.8-.54,7.86,2.69,10.26Z" transform="translate(-87.51 -16.41)"/><path class="cls-2" d="M463.81,519.68c10.94-.67,15.51-8.76,23-15.31,3.21-2.82,7.35-3.94,11.07-5.92a18.44,18.44,0,0,0,9.53-11.06c2.49-8.12-9.56-13.21-13.71-5.78l-7.23,13c-1.2,2.16-2.37,4.34-3.61,6.48-.38.67-.78,1.33-1.19,2q-1.78,1.68-.33.57l6.47,11.29L505.73,485l-13-7.57c-2.6,4.84-5.35,9.6-8.33,14.24-1.48,2.31-3,4.6-4.59,6.85-.7,1-1.4,2-2.13,3-.29.42-.61.84-.94,1.24q-2.79,3,5.4,4.16c.71-1.12.63-4.09,1-5.49a31.73,31.73,0,0,1,2.36-6.19,38,38,0,0,1,8.9-11.3l-12.8-5.3a44.76,44.76,0,0,1-4,17.25,47.79,47.79,0,0,1-4.32,7.38,34.69,34.69,0,0,1-2.7,3.35c-.51.59-1,1.15-1.59,1.7-1.66.92-1.47,1.62.56,2.13,3.16,2.68,1,.54,1.28-.53.34-1.38-.09-3.28,0-4.75a38,38,0,0,1,1.6-8.91,39.53,39.53,0,0,1,9-15.73l-12.8-5.3a41.74,41.74,0,0,1-6.25,24.12,25.67,25.67,0,0,1-3.6,4.76c-.34.34-1.64,1.1-1.81,1.51l-.69.36,1.39.63c.08-.56-.66-2.58-.76-3.56a25.52,25.52,0,0,1,.18-6.82,26.63,26.63,0,0,1,1.71-6c.38-.92,1-1.8,1.37-2.72.93-2.7,2.48-.29-2.16-4-3.94-3.13-2.92-3-3.62.13-.25,1.15-.52,2.29-.83,3.42a26.81,26.81,0,0,1-2.42,6.31c-1.35,2.36-3.88,5.47-6.92,5.47a4.56,4.56,0,0,1-3.29-1.53c-.45-.48-.68-1.4-1.1-1.79-1.57-1.49,2.85-.47-1.1.3h-4c-1.87-.55-1.24-1.47-.7.56a8.21,8.21,0,0,0,.77,2.2l.75-1,4.7,1.95c.12-.08-.77-3.62-.81-3.92a40.31,40.31,0,0,1,.88-14.72H425.91c1.51,4.51.24,9.14-4,11.68l10.26,2.69a21.14,21.14,0,0,1-.54-22H418.73c2,3.78.16,7.48-2.92,9.92l11.78,1.51c-3.76-6.72-3.74-13.82-.85-20.86l-12.53,3.31c1.65,1.94,1.67,4.17,1,6.49l9.22-5.24c1.11.23.46,1.27,0-1.06-.24-1.22-.64-2.43-.92-3.65a84,84,0,0,1-1.74-10.06,102.41,102.41,0,0,1-.08-19.73l-12.81,5.3a58,58,0,0,1,13,31.62l14.73-2a77.27,77.27,0,0,1-3.11-45.8H419a518.93,518.93,0,0,1,18.82,63.68l14.47-4c-5.63-23.63-10.7-47.43-13-71.64l-14,3.79a192,192,0,0,1,18,60l14.74-2a201.08,201.08,0,0,1-12.52-60l-14.73,2,24.44,72.75c3,9.08,16.93,5.43,14.46-4a547.86,547.86,0,0,1-15.29-85.45l-14,3.79A412.13,412.13,0,0,1,467,475.83c2.43,9.42,16.36,5.4,14.47-4a709.18,709.18,0,0,0-20.55-78.4l-13.71,5.78a429.43,429.43,0,0,1,28.4,81.08c2.3,9.48,16.24,5.39,14.46-4q-7.63-40.32-17-80.28l-13.7,5.78A271.61,271.61,0,0,1,480.24,474c1.22,8.3,15.39,6.41,14.74-2a596.43,596.43,0,0,0-10.4-73.59l-14.47,4q8.68,38.13,20.59,75.41c2.94,9.18,16.71,5.45,14.47-4l-6.25-26.23-3-12.63c-.46-1.95-.93-3.89-1.39-5.83-.6-2.61.16-3.78-1.47-1.83L480.52,424l11.15,46.09,13.71-5.78a149.45,149.45,0,0,1-7.69-23.74c-2.31-9.57-15.94-5.33-14.47,4L485.83,461l14.46-4-13.5-72.19c-1.54-8.21-15.58-6.45-14.73,2l3.44,34.27,14-3.78c-7.92-17.53-16.51-37.29-10.53-56.67l-14.73-2a493.8,493.8,0,0,0,2.25,53.84l14-3.79c-6.92-16.38-14.16-34.83-7.46-52.43H458.51a215.65,215.65,0,0,1,2.39,59.54l14.73-2-15.47-59.71-14.47,4c7.55,21.12,9.37,45.42-3.6,64.84l13.71,1.79q-6.29-36.33-11.2-72.87c-1.12-8.31-15.48-6.43-14.74,2,1.71,19.29,4.41,38.77,5.12,58.12a14.91,14.91,0,0,1,0,2.5q6.36,3.12,4.94-.74a34.63,34.63,0,0,0-.63-5.16l-1.9-15.79-3.57-29.61c-.49-4-3.1-7.5-7.5-7.5-3.73,0-7.94,3.44-7.5,7.5q3.53,33.18,4.15,66.57l14.73-2q-4.74-14.34-8.46-29c-1.41-5.61-6.25-17.55-1.86-22.88l-12.8-5.3a236.06,236.06,0,0,1-.88,51l14.74-2a298.1,298.1,0,0,1-7.62-54.25l-14.74,2a188.48,188.48,0,0,1,5.44,37.35l11.29-6.48c-9.12-5.48-9.3-16.86-1.53-23.58l-12.54-3.31,1.2,4.74c2.37,9.35,16.84,5.39,14.47-4l-1.2-4.73c-1.47-5.8-8.43-6.87-12.54-3.31-15.2,13.15-12.35,37,4.57,47.14,4.73,2.84,11.54-.77,11.28-6.48a210.54,210.54,0,0,0-6-41.34c-2-8.1-15.14-6.55-14.73,2A320.46,320.46,0,0,0,414,423.66,7.48,7.48,0,0,0,422.2,429c4-.54,6-3.59,6.5-7.36a236.06,236.06,0,0,0,.88-51c-.52-5.75-8.26-10.81-12.8-5.31-7.38,8.95-6.23,19.5-3.78,30.15,2.84,12.25,6.29,24.35,10.24,36.3,2.57,7.77,14.89,6.79,14.73-2q-.62-33.37-4.15-66.57h-15l5,41.45c.68,5.67.41,12.75,3.3,17.86a11.44,11.44,0,0,0,14,5.32c12.88-4.57,8.36-21.88,7.47-32l-3.71-42-14.73,2q4.92,36.54,11.21,72.88c1.18,6.85,10.46,6.65,13.71,1.79,15-22.52,13.92-51.75,5.11-76.4-3.21-9-16.92-5.48-14.47,4l15.48,59.71c2.24,8.66,14,6.05,14.73-2A230.08,230.08,0,0,0,473,352.33c-1.47-8-12.12-6.19-14.47,0-8.18,21.51.55,44,9,64,2.87,6.79,14.67,3.39,14-3.78a493.8,493.8,0,0,1-2.25-53.84c.11-8.61-12.27-10-14.74-2-7.24,23.51,2.43,47,12,68.23,3,6.66,14.71,3.47,14-3.79l-3.44-34.27-14.73,2L485.83,461c1.79,9.56,15.95,5.39,14.46-4l-2.6-16.46-14.47,4a172.77,172.77,0,0,0,9.21,27.32c3.43,8.05,15.63,2.16,13.71-5.78L495,420c-1.25-5.17-8.91-7.66-12.53-3.31-6.72,8.07-1.77,19,.39,28.08l7.86,33,14.47-4q-11.91-37.26-20.59-75.42c-2.15-9.44-16.4-5.42-14.47,4A561.06,561.06,0,0,1,480,472l14.73-2a284.64,284.64,0,0,0-22.39-75.78c-3.61-8-15.57-2.16-13.71,5.78q9.38,39.95,17,80.27l14.46-4a448.18,448.18,0,0,0-29.91-84.67c-3.6-7.68-16.32-2.26-13.71,5.78A704.2,704.2,0,0,1,467,475.83l14.47-4a433.31,433.31,0,0,0-28.19-77.51c-3.11-6.57-14.68-3.53-14,3.78a572.18,572.18,0,0,0,15.83,89.44l14.46-4-24.43-72.75c-2.57-7.64-15.19-6.88-14.74,2a215,215,0,0,0,13.05,64c1.31,3.53,4.33,5.9,8.23,5.37,3.31-.45,7-3.66,6.5-7.36a214,214,0,0,0-20-67.53c-3.17-6.51-14.68-3.58-14,3.78,2.47,25.56,7.63,50.68,13.57,75.62,2.24,9.4,16.6,5.42,14.47-4A518.61,518.61,0,0,0,433.46,419c-2.39-6.5-12.61-7.72-14.46,0a91.44,91.44,0,0,0,3.11,53.78c1.33,3.52,4.31,5.9,8.23,5.37,3.41-.46,6.83-3.64,6.5-7.37a75.68,75.68,0,0,0-17.37-42.22c-4.55-5.51-12.3-.5-12.8,5.3A109.72,109.72,0,0,0,408.08,463c1.39,7.67,3.34,17.9,12.34,19.8a7.69,7.69,0,0,0,9.23-5.24c2.3-7.72.3-15.05-4.84-21.09-4.06-4.77-10.6-1.38-12.53,3.31a37.35,37.35,0,0,0,2.36,32.42c2.58,4.61,8.12,4.41,11.78,1.52,8.5-6.73,10.09-18.76,5.26-28.09-2.6-5-10.27-4.73-12.95,0a36.42,36.42,0,0,0,.53,37.17,7.63,7.63,0,0,0,10.27,2.69,24.62,24.62,0,0,0,10.85-28.62c-2.23-6.66-12.67-7.59-14.47,0-2.2,9.31-4.29,25.9,4,32.92,9,7.62,20.51-2.57,19.77-12.46-.35-4.68-2.77-10.58-6.41-13.69-4.66-4-11.19-2.81-15.08,1.6-7.18,8.13-2.3,20.77,6.13,25.81,9.38,5.6,20.58,1.84,27.09-6.25a38.11,38.11,0,0,0,6.87-14.6c1.37-5.3,3-11.41-1-16-3.37-3.83-8.89-4-13.15-1.66-4.82,2.61-7.49,7.86-9.44,12.75-3.46,8.68-4.78,21.13.44,29.44a13.54,13.54,0,0,0,15.15,5.68c5.73-1.54,9.91-6.21,13.25-10.82a55.59,55.59,0,0,0,10.12-34.39c-.23-6.21-8.21-10.27-12.81-5.31a55.14,55.14,0,0,0-14,27c-1.64,8.7-2.95,22.48,6.94,26.9,10.38,4.64,19.53-8,24.17-15.55a60.67,60.67,0,0,0,8.69-29.6c.25-6.87-8.19-9.39-12.8-5.3A50.55,50.55,0,0,0,470.23,493c-2.53,6.53-5.7,17.21.53,22.72,7.95,7,15.86-1,20.45-7.39A209.26,209.26,0,0,0,505.73,485c4.56-8.5-8-15.88-13-7.57l-17.93,29.88c-2.95,4.91.85,11.25,6.48,11.28,6.8,0,11.22-4.46,14.47-10,3.76-6.39,7.23-13,10.84-19.44l-13.7-5.78c-.6,1.94-4.43,3-6.1,3.71a38.67,38.67,0,0,0-9.7,5.81c-3.62,3.09-8.18,11.45-13.32,11.76-9.59.6-9.66,15.6,0,15Z" transform="translate(-87.51 -16.41)"/><path class="cls-2" d="M396.69,376.12a37.57,37.57,0,0,1,3.89,33.61l12.53-3.31a13.48,13.48,0,0,1-4.54-7.41,12.93,12.93,0,0,1-.25-3.62c.23-2.66,1.84-2.65-1.35-3.52q-3.09-1.8-1.74.65c.34,1.18.63,2.38.88,3.58a39.45,39.45,0,0,1,.71,5.3,51,51,0,0,1,.05,5.53c-.05,1.17-.15,2.34-.28,3.5-.61,2-.54,2.37.23,1.07l5.3-2.19c-1.18.13-2.14-1.37-2.79-2.12s0-1.62-.79-1L399.45,405a32.32,32.32,0,0,1,8.35,20.37c.46,9.89,13.82,9.37,15,0a93.21,93.21,0,0,1,8-27.69,102.89,102.89,0,0,1,6.75-12.21c2.09-3.24,5.38-9.61,8.94-11.28l-3.78,1,1,.08-3.79-1c-1.7-1.07-.9-2.76-1.27-.12a30.37,30.37,0,0,0,0,3.44,48.45,48.45,0,0,1-.74,7.41,56.65,56.65,0,0,1-4.32,13.69l14,3.79A17.23,17.23,0,0,1,453.4,387l-12.53-7.3c-1.56,10.46-5.64,33.23-21.29,28.92-6.79-1.86-14.43-7.8-21.63-3.85-7.69,4.22-5.3,15.94-5.26,23.17l14-3.79c-1.43-2.58.59.93-1.94-.07-.94-.37-3.59-2.68-3-3.62-.42.61,1.65-.23,1.79-.48,0,0-.71-1.26-.7-1.38a5.85,5.85,0,0,1,.69-2.43c1.23-2.19.77.2,1.35-.28.08-.06-1-1.94.13.3l-.76-5.78c-.33,2.36-1.75,6.56-5,6.26-2.46-.23-3-2.84-2.28-4.69H382.58c1.42,7.56-.78,14.71-5.24,20.84l10.27-2.69a4.55,4.55,0,0,1-2.3-1.88c-1.85-3.36,1.83-1.31-2.85-.17h-4q-1.58-6.43-3-2.55c-.56.92-1.14,1.83-1.74,2.72a50.32,50.32,0,0,1-3.74,4.87A69.43,69.43,0,0,1,360.6,442l11.78,1.52c-.63-1.05-5.49-8.86-3.28-9.68l-8.47-3.44c2.16,4.31-.46,9-4.41,10.94L366.48,444c-3.29-5.26-2.55-10.73,1.16-15.54l-13.71-1.79a8.8,8.8,0,0,1-4.19,10.44L360,439.81c-3-5.7-2.81-11.63-.53-17.52l-13.71,1.79c-.26-.47.29-.83.2-.83l6.47,3.72a46.09,46.09,0,0,1-4.12-18.3l-14.74,2c.69,4.54-1.71,8.53-5,11.37h10.61c-1.61-1.55-2.88-4-1.89-6.26L323.57,414a15.64,15.64,0,0,1-4.35,14.09L331,429.59c-5.05-7-5.89-15.6-1.47-23.16l-13.7-5.78a52.93,52.93,0,0,1-13.38,22L315,425.92a26.7,26.7,0,0,1,2-19.7l-13.71-5.78a74.09,74.09,0,0,1-12.5,31.71l13.71,5.78a453.86,453.86,0,0,1,13.43-60.31c2.75-9.28-11.65-13.2-14.46-4A87.46,87.46,0,0,1,289,401.89l12.54,7.29a149.08,149.08,0,0,1,12.63-41.85l-12.95-7.57L286.39,391l14,3.78c.21-8.86,4.43-17.15,8-25.08,3.23-7.1,6.71-14.32,11.43-20.58,9.82-13,24.55-17.76,40.34-18.16,16.74-.42,35.13,1.5,51.19,6.24,8.43,2.48,16.22,7.23,25.14,7.81a23.22,23.22,0,0,0,20.84-9.53l-14-3.78a105.89,105.89,0,0,1-13.8,41.55L443.28,379l4.35-27.57c1.48-9.36-11.45-13.38-14.46-4a41.69,41.69,0,0,1-23.74,25.83l9.23,9.23A175.17,175.17,0,0,1,432,349.32c4.48-8.52-8.11-16-12.95-7.57Q402.64,370.27,384,397.38l13.71,5.78a206.37,206.37,0,0,1,12.8-45.4l-14.47-4c-.6,3.65-7.74,41.25-12,39.28l2.69,10.26a71.53,71.53,0,0,1,19.63-25.88l-11.78-9.09a152.06,152.06,0,0,1-29.36,41.23l12.53,7.3a343.8,343.8,0,0,1,23.53-52.18l-13.71-5.78a305.22,305.22,0,0,1-26.33,59.34l14,3.79a318.17,318.17,0,0,1,9.38-58c2.4-9.35-12-13.32-14.47-4a322.88,322.88,0,0,1-17.41,49.43l14,3.79a176.3,176.3,0,0,1,3.4-47.63c2-9.42-12.46-13.44-14.47-4a191.64,191.64,0,0,0-3.93,51.62c.41,6.69,10.67,11.14,14,3.78a346.67,346.67,0,0,0,18.93-53l-14.47-4a340.28,340.28,0,0,0-9.91,62c-.5,7.59,10.41,10,14,3.78A324.6,324.6,0,0,0,402,362.9c2.6-8.11-9.6-13.2-13.71-5.78a368.2,368.2,0,0,0-25,55.76c-2.57,7.28,7.47,12.35,12.53,7.3a164.31,164.31,0,0,0,31.71-44.27c3.81-7.8-5.18-14.59-11.78-9.08a81.22,81.22,0,0,0-22,28.91c-1.54,3.41-1.28,8.43,2.69,10.27,26.1,12.05,31.42-32.41,34.05-48.25,1.6-9.63-10.81-12.91-14.47-4a206.34,206.34,0,0,0-12.79,45.4c-1.35,8.32,8.7,13.05,13.7,5.78q18.66-27.1,35.08-55.63l-12.95-7.57a194.56,194.56,0,0,0-14.86,36.8c-1.46,5.05,3.78,11.41,9.22,9.23a57.82,57.82,0,0,0,34.21-36.32l-14.46-4L428.82,375c-1.25,7.92,9.14,13.68,13.7,5.78a124,124,0,0,0,15.85-49.12c.35-3.25-2.58-6.4-5.5-7.23-3.43-1-6.49.76-8.47,3.44-4.33,5.86-15.95-.3-20.62-2.18-9-3.62-18.29-5.53-27.87-6.86-17.07-2.38-34.51-4.5-51.62-1.25s-30.71,13.25-40,27.78c-4.54,7.08-8,14.8-11.35,22.48-3.81,8.7-7.3,17.27-7.53,26.9-.17,7.13,10.72,10.64,14,3.79l14.82-31.24c4.12-8.67-8.79-16.3-12.95-7.57a161.84,161.84,0,0,0-14.15,45.44c-.5,3.34.34,6.65,3.45,8.47,2.63,1.53,7.08,1.41,9.09-1.18a107,107,0,0,0,18.29-34.87l-14.46-4A451.8,451.8,0,0,0,290,433.94c-1.26,8.3,8.66,13.08,13.71,5.78a84.17,84.17,0,0,0,14-35.29c.56-3.75-.62-7.29-4.34-8.85-3.27-1.38-7.64-.26-9.37,3.07a42.63,42.63,0,0,0-3.49,31.26,7.57,7.57,0,0,0,12.53,3.31,69,69,0,0,0,17.24-28.59c2.55-8.18-9.45-13.06-13.71-5.78-6.91,11.83-6.61,27.11,1.47,38.31,2.74,3.8,8.15,5.27,11.78,1.52A31.46,31.46,0,0,0,338,410c-1.2-6-11.14-7.69-13.71-1.8-3.7,8.52-2.64,17.81,4.23,24.44,3.08,3,7.48,2.69,10.61,0,7.68-6.6,10.33-16.18,8.87-26-1.26-8.42-14.94-6.33-14.73,2a64.39,64.39,0,0,0,6.17,25.87c1.1,2.36,4,3.67,6.48,3.71,11.14.21,18.07-12.2,12.75-21.74-3.4-6.1-11.51-3.9-13.71,1.79-3.71,9.62-2.66,20,2.05,29.08,1.88,3.61,6.89,4.64,10.26,2.69a24,24,0,0,0,11.08-27.38c-1.95-6.78-9.93-6.67-13.7-1.79-6.8,8.8-7,21.36-1.16,30.68a7.69,7.69,0,0,0,10.26,2.7c11.6-5.75,15.41-20.26,9.79-31.47-1.37-2.74-5.54-4.54-8.47-3.45a16.26,16.26,0,0,0-11,13.09c-1.11,6.79,1.9,12.94,5.3,18.62,2.7,4.52,8,4.5,11.78,1.52,8.23-6.53,30.38-28,14.6-37.63-8.1-4.91-15.51,2.37-15.93,10.49A18.87,18.87,0,0,0,380,443.09c3.89,2,7.77.75,10.27-2.69,6.87-9.46,8.88-21,6.74-32.4-1.5-8-12.1-6.2-14.46,0-5.05,13.26,8.82,26.77,22,22.87a20.85,20.85,0,0,0,13.83-14.42c1.85-7.12-2.57-13.14-9.48-15-14.33-3.88-25.63,12.24-19,24.87,3.2,6.11,10.16,10.12,17,8.12,5.94-1.73,9.93-8.07,9.64-14.12-.42-8.58-9.56-13.36-17.15-10-8.63,3.77-9.92,13.87-5.71,21.47,3.62,6.54,14,3.56,14-3.79,0-4-1.24-10.29.23-13.95l-3.44,4.48c-1,.72,1.6.89,2.43,1.2,1.46.54,2.88,1.2,4.32,1.79a32.45,32.45,0,0,0,9.36,2.56,26.36,26.36,0,0,0,17.89-5.27c11.38-8.32,14.88-21.79,16.85-35.06,1.08-7.25-6.59-12.62-12.53-7.3a31.23,31.23,0,0,0-10.27,26.07c.66,6.57,10.49,11.23,14,3.78,4.78-10.22,7.77-21.6,7.07-33-.28-4.59-1.65-9.71-6.12-12-5.86-3-10.76.73-14.42,5.12a113.35,113.35,0,0,0-25.24,58.93h15a48.87,48.87,0,0,0-12.74-31c-2-2.21-6.58-3.08-9.09-1.17-11.24,8.57-7.53,23.89,4.55,29.75,17.57,8.51,17.12-18.12,15.53-28.13-.93-5.88-2.5-12.79-8.23-15.84-6-3.19-12.79,0-16.26,5.31-6.73,10.25-2.63,24.94,5.94,32.72,4.36,4,10.63,2.11,12.54-3.3a52,52,0,0,0-5.39-45.17c-5.22-8.08-18.21-.57-13,7.57Z" transform="translate(-87.51 -16.41)"/><path class="cls-2" d="M442.83,489.7a26,26,0,0,1-3.43-1.8c-1.59-1,.39.58-.94-.72-.46-.46-.93-.89-1.37-1.37-.13-.14-1.09-1.39-.53-.6-.37-.53-.71-1.08-1-1.65-.16-.29-.81-1.55-.41-.65a15.58,15.58,0,0,1-.73-2.22c-2.6-9.27-17.08-5.33-14.46,4,2.19,7.81,7.78,14.78,15.33,18,3.73,1.57,8,1.12,10.26-2.69,1.84-3.15,1.06-8.68-2.69-10.26Z" transform="translate(-87.51 -16.41)"/><path class="cls-2" d="M423.29,347.07c3.52,3.57,5.23,9.23,3.15,14l10.26-2.69c-4.79-2.44-7.78-9.68-3.94-14.35L420,338.76a28.46,28.46,0,0,1,.09,5c-.06.48-.62,2.22-.58,2.46v.08c-1.26.45-.7.76,1.67,1-.12.08-.88-2.73-.74-1.81-.74-4.88-5.68-9.61-9.61-12.11-8.47-5.38-19.2-5.6-28.84-4.59-13.32,1.39-26.44,4.62-39.53,7.32-11.67,2.4-21.75,4.86-28.84,15.23-11.87,17.36-10.66,43.61,9.84,53.73a95.72,95.72,0,0,0,15.68,5.62c5.26,1.54,12.11,4.86,17.68,3.4,6-1.57,7.88-7.72,10-12.79l8.15-20c2-4.83,3.73-10.38,7.05-14.51,3.85-4.77,9.94-3.56,15.24-5.31,10.17-3.35,16.36-18.94,4.94-25.06-4-2.15-10-.44-11,4.49-1.49,7.12-5.64,12-12.27,14.88l11,4.48c-1.27-5.2-.05-9.79,3-14.11l-12.95-7.57a61,61,0,0,1-12.57,18.39l11.77,1.52c-2.57-4.43-2.08-8.92.77-13.07l-14-3.79a95.1,95.1,0,0,1-10.09,34l13.71,1.79a33.09,33.09,0,0,1,3.66-30.43l-14-3.79A83.49,83.49,0,0,1,346.28,390l14,3.79a78.81,78.81,0,0,1,8-43.34L358,353.09l3.65,2.69-3.44-8.47-13.1,41.36,11-4.48c-1.6-1.1.17-10.62.41-12.91l1-9.58.6-5.75c.17-1.59,1.58-4.17-.55-3.15l-5.78.75,1,.3-5.23-9.22q-3.12,13.78-6.7,27.48c-1.19,4.53-2.5,14.59-7.89,16.42l9.23,9.23a343.1,343.1,0,0,1,14.92-58.14l-14.47-4c-3.58,16.84-7.18,35-18.42,48.67l12.81,5.3a202.87,202.87,0,0,1,10.85-44.42l-14.47-4q-7.49,20.94-15.92,41.49l9.22-5.24q1.53,3.62,2.31,2.11a.2.2,0,0,0,.05-.21c.35-.33.67-2.48.83-3,.91-3.1,1.89-6.18,2.83-9.27l5.65-18.54c2.85-9.35-11.2-12.93-14.47-4a187.12,187.12,0,0,1-14.61,30.73l14,3.78a63.86,63.86,0,0,1,1.37-14.26c1.54-7.18-7-12.7-12.54-7.29a25.27,25.27,0,0,0-6.55,10.76c-3,9.22,11.51,13.16,14.46,4a9.4,9.4,0,0,1,2.7-4.15l-12.54-7.29a82.25,82.25,0,0,0-1.9,18.24c.08,7.42,10.18,10.24,14,3.79a210,210,0,0,0,16.12-34.31l-14.47-4c-3,9.84-6.58,19.68-9,29.67-1.67,6.8-.47,16.21,7.85,17.72,4.38.79,7.57-1.19,9.23-5.24q8.44-20.56,15.93-41.49c3.26-9.11-11.2-13-14.47-4A220,220,0,0,0,322,389.61c-.78,6.31,8.84,10.11,12.8,5.3,13.1-15.92,18.08-35.52,22.28-55.29,2-9.48-11.26-13.08-14.47-4a342.72,342.72,0,0,0-14.91,58.13C326.87,399,331,405,337,403c9.3-3.17,13.86-11.21,16.55-20.2,3.36-11.23,5.93-22.76,8.51-34.19a7.66,7.66,0,0,0-5.24-9.22c-14.88-4.53-13.94,19.52-14.84,28.06-1.11,10.61-3.59,22.72,6.62,29.69,4.17,2.84,9.65-.17,11-4.48l13.1-41.36c1.08-3.43-.81-6.53-3.45-8.47l-3.65-2.7c-3.14-2.3-8.57-.64-10.26,2.7a93.13,93.13,0,0,0-10.05,50.91c.67,7.23,9.81,10.42,14,3.78a98,98,0,0,0,14.93-54.37c-.19-7.67-9.9-9.9-14-3.78a47.32,47.32,0,0,0-5.17,42c2,5.61,10.55,8,13.71,1.79a115.23,115.23,0,0,0,12.13-41.6c.79-8-10.19-9.3-14-3.78a26.43,26.43,0,0,0-.76,28.21,7.59,7.59,0,0,0,11.78,1.52,72.6,72.6,0,0,0,14.92-21.43c4-8.77-7.34-15.56-12.95-7.57a31.33,31.33,0,0,0-4.49,25.67c1.26,5.15,6.78,6.35,11,4.48a33.76,33.76,0,0,0,19.16-23.85l-11,4.49c-1-2.86-1.4-3.76-1.28-2.72l-.08.22c.24.07-1.57.59-2.2.73-3,.68-6.13.71-9.09,1.65-6.18,2-10.82,6.39-14.17,11.83s-5.58,12-8,18.05L355.23,390c-.62,1.52-2.73,9.57-4.23,10.34l3.79-1c-3.15.12-6.94-1.74-10-2.62-3.49-1-7-2-10.44-3.22-5.67-2-10.81-5.26-12.7-11.25-3.05-9.65,1.67-25.08,11.8-28.73,7.11-2.57,15.12-3.43,22.51-4.95,8-1.64,16-3.54,24.08-4.59,6.05-.78,12.52-1.36,18.47.3,5.72,1.6,6.65,4.5,9.07,9.42a13.32,13.32,0,0,0,18.84,5.88c7.6-4.27,8.88-12.8,8.48-20.76-.29-5.88-8.38-10.68-12.8-5.31-9.62,11.72-7.13,30.73,7,37.91,3.27,1.67,8.58,1.2,10.26-2.69,4.82-11.12,3.17-23.42-5.5-32.21-6.78-6.88-17.39,3.72-10.6,10.61Z" transform="translate(-87.51 -16.41)"/><path class="cls-2" d="M325.6,351.07a48.21,48.21,0,0,1,44-11.52c9.38,2.27,13.38-12.2,4-14.46A63.84,63.84,0,0,0,315,340.47c-7.07,6.59,3.55,17.18,10.61,10.6Z" transform="translate(-87.51 -16.41)"/><path class="cls-2" d="M306.78,432.25l.69-.64-5.3,2.2,1,0-3.78-1,.85.61-3.45-4.48c.56,1.82-1,5.7-1.57,7.5a59.8,59.8,0,0,1-2.91,7.9L306,450.12l6.5-25.11c2.13-8.2-9.31-13.16-13.7-5.78l-15.56,26.15h13c-1.41-2.66-.11-6.1.6-8.82,1.13-4.34,2.34-8.66,3.51-13l7-26c2.59-9.6-10.87-12.63-14.46-4l-10,24-4.61,11.06-2.3,5.53-1.53,3.69c-1.09,1.71-.75,1.69,1-.05h4l-1-.34,5.23,9.23c2.92-17.61,9.74-34,16.8-50.32,1.63-3.74,1.08-8-2.69-10.26-3.18-1.91-8.62-1-10.26,2.69a222.42,222.42,0,0,1-22.78,39.71l13.71,5.78c2.4-8.4,5.13-16.69,8.27-24.84,2.72-7.08,6.66-14,8.55-21.39,1.78-6.89.88-14.09,3-20.91s6.56-12.5,12.15-17c3.19-2.54,2.61-7.94,0-10.6-3.09-3.16-7.46-2.51-10.61,0a48.24,48.24,0,0,0-14.35,19.18c-3.1,7.41-3,14.6-4.07,22.38s-5.59,15.26-8.46,22.57c-3.41,8.71-6.37,17.59-8.94,26.58-2.47,8.63,9,12.38,13.7,5.78a222.42,222.42,0,0,0,22.78-39.71l-12.95-7.57c-7.57,17.45-15.18,35-18.31,53.9-.69,4.15,1.05,7.86,5.24,9.23,11.9,3.89,15.83-13.4,19.06-21.16l13.81-33.18-14.46-4-8.53,31.57c-2.5,9.25-5.91,18.72-1.09,27.8,2.69,5.06,10.17,4.68,13,0l15.56-26.14L298.08,421l-6.5,25.1c-2.05,7.91,10.08,13.77,13.71,5.78,3.13-6.92,6.46-15,6.64-22.7.2-8.71-9.16-13.66-15.75-7.57-7.11,6.57,3.52,17.16,10.6,10.61Z" transform="translate(-87.51 -16.41)"/><path class="cls-2" d="M279.18,441a375.93,375.93,0,0,1-.19,47.35l14.73-2a51.76,51.76,0,0,1,1.83-35.23l-13.71-5.78a120.48,120.48,0,0,0-.29,37c1.23,8.57,14.61,6.18,14.73-2a160.34,160.34,0,0,1,2.88-28.25l-14.73-2a108,108,0,0,1-3.28,38.56l14.74,2a124.69,124.69,0,0,1,5.24-37.36l-14.73-2a204,204,0,0,1-4.91,30.58q-1.75,7.34-4,14.53c-.68,2.13-1.72,7.6-4.22,8.48l5.78.75c-1.06-.68-.46-8.4-.46-10.28q0-8.26.49-16.51a266.25,266.25,0,0,1,4-32.69l-14.74-2a327.52,327.52,0,0,1-3.85,35.07q-1.43,8.49-3.29,16.91-.93,4.2-2,8.38c-.3,1.22-.52,2.53-.94,3.71a3.09,3.09,0,0,1-.57,1.42q-.81,1.32.27-.18h4l-1.16-.29,5.51,7.23a191.71,191.71,0,0,1,13-66.84l-14.73-2a151,151,0,0,1-15.74,71l13.71,1.79c-2-10.36,1.41-21.45,3.4-31.58q3.29-16.8,6.67-33.58c1.89-9.4-12.37-13.47-14.47-4-5.42,24.47-10.87,49.28-21.81,72l14,3.79q2.55-34.65,8.13-68.94c1.53-9.38-12.66-13.55-14.46-4-4.72,25-9.48,50.46-20.81,73.46l13.71,5.78,13.08-81.65-14.46-4a505.81,505.81,0,0,1-15.74,72.81H234.2a189.67,189.67,0,0,1,3.33-71.75l-14.73-2a251.53,251.53,0,0,1-7.19,68.82h14.46c-2.88-19.63-1.48-39.64-.21-59.34l-12.8,5.3c3,3.34,3.27,8.09,3.29,12.38,0,5.76-.46,11.57-.93,17.32-.95,11.62-2.91,23.3-8.56,33.65l13.71,1.79c-4.1-24.21-3.7-48.88-3.35-73.35h-15a267.38,267.38,0,0,1-.46,62.33L217,509.16c1.23.89.33.39.44-.62a19,19,0,0,0-.3-3.52l-.66-7.91L215,479.3l-2.91-34.62-14.73,2a205.6,205.6,0,0,1,2.79,63.82h15l-1.11-55.57-14.73,2a227.9,227.9,0,0,1,5.63,26c.92,5.95,3.76,15.68-.12,20.94l13.71,1.79a397,397,0,0,1-11-43.49c-1.6-8.3-15.08-6.41-14.73,2l1.83,44.36,14.74-2L201.24,456c-1.4-8.65-14.44-6.11-14.74,2l-1.57,42.34,14.74-2L187.75,450.3c-2-8-15.51-6.57-14.73,2l3.09,34.07,14-3.78a103.6,103.6,0,0,1-9.94-22.92c-2.76-9.28-16.59-5.42-14.47,4a28.86,28.86,0,0,1,.36,11.56l9.22-5.24c-16.06-6.06-33.95-15.31-45.1-28.75-4.75-5.73-8.53-13.85-6.59-21.43,1-4.07,3.23-5,7.24-4.43,4.61.62,9.25,2.43,13.66,3.84,35.9,11.5,73.89,28.92,111.88,15.53,9-3.19,5.15-17.69-4-14.47C218.49,432.21,184,416.49,152,405.92c-14.27-4.72-34.63-11.74-41.94,6.92-6.07,15.51,2.2,32.39,13.39,43.15,13.37,12.85,30.57,22,47.79,28.46,3.55,1.34,8.56-1.51,9.22-5.24a48,48,0,0,0-.35-19.54l-14.47,4a121.35,121.35,0,0,0,11.46,26.5c3.54,6.06,14.67,3.89,14-3.79L188,452.3l-14.74,2,11.92,48c2.09,8.41,14.43,6.3,14.73-2L201.5,458l-14.73,2L195,510.47c1.36,8.36,15.08,6.37,14.73-2l-1.83-44.36-14.73,2a399.28,399.28,0,0,0,11,43.49c2.06,6.58,9.94,6.9,13.71,1.79,5.64-7.64,3.6-18,2.45-26.75a234.91,234.91,0,0,0-6.45-31.72c-2.22-8.06-14.9-6.58-14.73,2l1.11,55.57c.19,9.87,14,9.4,15,0a218.33,218.33,0,0,0-3.33-67.8c-1.68-8.19-15.44-6.48-14.73,2l3.57,42.54c.58,6.92,1,13.86,1.74,20.77.61,6,2,10.48,7,14.12,5.16,3.75,10.67-1.51,11.29-6.47a267.38,267.38,0,0,0,.46-62.33c-1-9.38-14.86-9.88-15,0-.37,25.88-.45,51.74,3.88,77.34,1.09,6.46,10.79,7.13,13.71,1.79,7.26-13.29,9.63-28,10.74-43,1-13.28,2.67-27.86-6.88-38.56-4.63-5.18-12.42-.75-12.81,5.31-1.37,21.18-2.35,42.24.75,63.33,1.1,7.53,12.79,6.76,14.46,0a266.93,266.93,0,0,0,7.73-72.81c-.26-8.21-12.7-10.49-14.73-2a209.25,209.25,0,0,0-3.33,79.73c1.14,7.73,12.54,6.52,14.46,0a504.31,504.31,0,0,0,15.74-72.82c.57-4-1-8-5.23-9.22-3.57-1-8.59,1.24-9.23,5.24l-13.09,81.64c-.6,3.73.65,7.29,4.34,8.85,3.23,1.35,7.71.29,9.37-3.07,12-24.27,17.33-50.64,22.32-77l-14.46-4Q238,490.32,235.29,527c-.53,7.29,10.79,10.41,14,3.78,11.55-24,17.6-49.74,23.33-75.57l-14.47-4q-3.75,18.71-7.42,37.42c-2.32,11.88-5,23.63-2.65,35.72,1.22,6.21,10.9,7.42,13.71,1.79a167.25,167.25,0,0,0,17.79-78.59c-.2-8.86-11.78-9.66-14.73-2a203.74,203.74,0,0,0-13.52,70.82,7.61,7.61,0,0,0,5.5,7.24c16.49,4.07,18.52-21.32,20.59-32a358.43,358.43,0,0,0,5.92-47.53c.49-8.33-13.18-10.36-14.73-2a296.71,296.71,0,0,0-4.87,43.48c-.33,9.55-3.26,30.15,9.51,33.7,5.77,1.61,11.54-3.78,14.31-8.25,3.15-5.07,4.66-11.34,6.27-17a226.59,226.59,0,0,0,7.59-42.78c.72-8.65-12.39-9.85-14.74-2a139.34,139.34,0,0,0-5.77,41.34c.09,8.39,12.48,10.26,14.73,2a120.24,120.24,0,0,0,3.81-42.55c-.71-7.78-13-10.92-14.73-2a183.75,183.75,0,0,0-3.42,32.24l14.73-2a96.69,96.69,0,0,1,.29-29c.61-3.73-.65-7.3-4.34-8.85-3.1-1.3-7.88-.36-9.37,3.07-6.5,14.95-7.94,31.05-3.34,46.79,2.45,8.36,14.18,6.33,14.74-2a375.93,375.93,0,0,0,.19-47.35c-.57-9.59-15.57-9.66-15,0Z" transform="translate(-87.51 -16.41)"/><path class="cls-2" d="M149.34,422c22.7-2,43.46,8.9,65.3,13a98.66,98.66,0,0,0,35.24.46c10.43-1.76,22.19-5,23.51-17.17.91-8.36-13.12-10.26-14.73-2a116.18,116.18,0,0,1-15.1,38.89l13.71,5.78a44.52,44.52,0,0,1,4.59-14.49,43.33,43.33,0,0,1,3.68-5.8c.76-1,1.58-1.93,2.43-2.84.57-.6,3.5-2.45,1.51-1.74h-4c-3.66-.52-1.53-3.2-2.28.07-.32,1.42-.23,3.09-.45,4.54a61.82,61.82,0,0,1-2.33,9.57,60.42,60.42,0,0,1-9,17.1l13.71,1.79c-1.34-4.49-.18-8.61,1.94-12.7,1.52-2.92,4-8.75,7-10.19l-3.79,1q-3-2.83-1.85,0c.27,1.23.51,2.47.74,3.71.45,2.45.82,4.9,1.1,7.37a126.32,126.32,0,0,1-2.68,43.12l14.73,2A47.08,47.08,0,0,1,286.2,484l-13.7-5.78-6.22,27c-1.87,8.17,9.25,13.26,13.71,5.78l7.64-12.8,3.82-6.4,1.91-3.2q1.26-1.77-1.87.61l-3.79-1c-1-.47-.58-1-.43,1.53.14,2.28.24,4.57.29,6.85a87.1,87.1,0,0,1-.33,12,35.9,35.9,0,0,1-8.9,20.51c-5.17,5.71-11.45,10.45-17.78,14.8-7,4.81-14.32,9-23.07,8.3l3.78,14a113.57,113.57,0,0,0,45.54-47.91l-13.71-5.78a70.52,70.52,0,0,1-24.46,34.39l12.53,7.29A245.19,245.19,0,0,1,279.41,519c5.2-8.39-7.35-15.14-13-7.57L241.54,545.1l10.26-2.69,1.11,2.18a1.22,1.22,0,0,1,.08-1,14.75,14.75,0,0,0,.68-2.1,64.14,64.14,0,0,1,4.23-7.19l9.51-15.93-13.71-5.78a137.08,137.08,0,0,1-20.85,34.18l12.81,5.31A46.63,46.63,0,0,1,255,520.23l-13.7-5.78L235,530.79c-.63,1.64-1.1,4-2.23,5.37-.36.45-1,1-.48.82a23.12,23.12,0,0,0-2.46-1.29l3.45,8.47a87.32,87.32,0,0,1,9.89-17.28l-14-3.79A28.91,28.91,0,0,1,217.74,549l12.54,3.31c-1.94-6.3.71-14.42,7.21-17.08L228,528c.74,7-.85,13.41-5.64,18.68l12.8,5.3q.24-2.09-2.72,1.2l-3.79-1c-1.4-.62-.26-2.78-1.2-3.07-.32-.1-2,1-2.4,1.15a68.88,68.88,0,0,1-7.67,2.67,51,51,0,0,1-16.22,2.33c-8.28-.3-17.15-3.81-21.67-11.1-4.68-7.54-5.69-17.91-6-26.62-.31-8.34.59-17.25,6.5-23.65l-11.78-1.52a113.12,113.12,0,0,0,21,31.17c4.11,4.33,9.73,8.23,12.12,13.88s1.81,12.13,1.6,18l5.5-7.23c-1.75.72-5.31-4.9-6.54-6.46l-9.52-12.05c-1.83-2.33-14.77-15.79-10.07-19.07l-11-4.48c2.22,7.71,7,13.75,10.61,20.78,2.14,4.19,3.86,10.12-.17,13.63L193.44,542a150.06,150.06,0,0,1-9.19-29.66l-13.7,5.78a120,120,0,0,1,16.38,30.37l11-8.47a28.86,28.86,0,0,1-11.81-13.21l-6.47,11.29a40.1,40.1,0,0,1,20.41,8.13c5.46,4,12.66-2.61,11-8.47a152.73,152.73,0,0,1-5.6-45.9l-14,3.78c4.13,9.39,5.52,19.82,7,29.89.59,4,5.67,6.23,9.23,5.23,4.3-1.2,5.83-5.18,5.24-9.22-1.7-11.57-3.77-22.71-8.51-33.47-3.18-7.22-13.78-3-14,3.79a167.06,167.06,0,0,0,6.13,49.88l11-8.47a54.49,54.49,0,0,0-28-10.17c-6.18-.55-8.66,6.64-6.48,11.28A42.69,42.69,0,0,0,190.37,553c5.32,3.12,13.3-2.14,11-8.47a133.19,133.19,0,0,0-17.89-34c-5-6.76-15.49-2.88-13.71,5.78a167.25,167.25,0,0,0,10.7,33.25c2.07,4.75,8.55,4.33,11.78,1.52,6.74-5.87,7.87-15.31,5.79-23.61-2.34-9.33-9.74-16.26-12.37-25.4-1.25-4.34-6.95-7.32-11-4.48a18.44,18.44,0,0,0-7.76,19c1.34,7.52,6.65,13.36,11.23,19.15,5.15,6.52,10.14,13.2,15.46,19.58,4.49,5.39,11.51,10.28,18.76,7.3,3.22-1.31,5.38-3.61,5.51-7.23.25-6.85.39-14-1.69-20.66-2.15-6.85-6.51-12.09-11.58-17a107.35,107.35,0,0,1-23.47-33c-2-4.35-8.75-4.8-11.78-1.52-11.63,12.61-12,29.81-9.73,45.9,1.18,8.32,3,16.91,7.85,24a39.25,39.25,0,0,0,19.69,14.6c8.67,3.07,18.06,3,27,1.37,7.82-1.41,18.46-4,24.33-9.64s5.68-16.41-2.28-20.25c-9.19-4.43-15.56,4.63-16.06,12.78-.39,6.41,8.53,10,12.81,5.3,7.27-8,11.19-18.43,10-29.28-.46-4.25-4.52-9.27-9.5-7.23-13.92,5.69-22.25,20.71-17.69,35.52,1.8,5.85,8.14,6.76,12.54,3.31a42.58,42.58,0,0,0,15.85-36.51c-.62-7.63-9.56-9.92-14-3.78a102.7,102.7,0,0,0-11.39,20.86c-1.2,2.88.77,7.11,3.44,8.47,8.18,4.18,17.27,4.74,22.8-3.81,2.32-3.58,3.58-7.92,5.1-11.86l5.6-14.53c1.34-3.48-1.2-7.52-4.34-8.85-3.68-1.55-7.11,0-9.37,3.07a59.33,59.33,0,0,0-11.4,39.45c.41,5.83,8.3,10.72,12.8,5.3a161.11,161.11,0,0,0,24.71-40.8c3.37-8-9.49-12.85-13.71-5.78-4.85,8.11-10.78,16.21-14.53,24.89-3.05,7.06-2.88,15.27,4.3,19.64,3.73,2.27,7.88.52,10.26-2.69L279.41,519l-13-7.57A268.58,268.58,0,0,0,246.7,550.2c-1.25,3,.84,6.94,3.45,8.47,3.12,1.82,6.41.89,9.08-1.18a83.82,83.82,0,0,0,28.32-41c2.56-8-9.89-13.45-13.71-5.78a99.51,99.51,0,0,1-40.15,42.52c-6.84,3.89-3.3,13.45,3.79,14,15.46,1.15,28.61-8.4,40.2-17.42,11.38-8.85,20.84-19.6,23.57-34.18a98.41,98.41,0,0,0,1.19-22.42c-.27-6.22-.33-13.8-6.32-17.5-7.11-4.39-13.15,1.2-16.67,7-4.18,6.9-8.27,13.87-12.41,20.8l13.71,5.78,6.21-27c1.8-7.84-10.09-13.91-13.71-5.78a64.93,64.93,0,0,0-5.91,27.12c0,8.3,12.74,10.39,14.73,2a142.31,142.31,0,0,0,4-34.82,140.59,140.59,0,0,0-1.35-17c-.71-5.16-1.11-11.21-3.89-15.77a11.3,11.3,0,0,0-12.49-5.27c-4.72,1.26-7.56,5.76-10.11,9.54-6.19,9.2-10.86,19.9-7.55,31.05,2,6.62,10,6.86,13.71,1.79A72.29,72.29,0,0,0,276,450.41c1.9-7.41,4.85-19.43-1.19-25.75-7.87-8.22-16.86,1.32-21.7,7.77a55.39,55.39,0,0,0-10.34,24.65c-1.25,8,9,13.49,13.7,5.78a128.23,128.23,0,0,0,16.62-42.48l-14.74-2c.19-1.73-.59-.33-2.06.25a44.67,44.67,0,0,1-6.73,1.75A76.91,76.91,0,0,1,233.8,422c-9.82,0-19.26-2-28.67-4.67-18.25-5.13-36.49-12-55.79-10.31-9.54.85-9.62,15.86,0,15Z" transform="translate(-87.51 -16.41)"/><path class="cls-2" d="M178.72,452.8l-11.21-2.59c-1.77-.41-3.82-1.27-5.61-1.3-2.22,0-.88-1.45-.61.5l-12.54,7.3,18.52,17.7,9.09-11.78a110.69,110.69,0,0,1-27.42-18.95,107.74,107.74,0,0,1-10.84-11.86c-1.32-1.69-6.88-8.58-5-10.6l-7.3,1.93c10.18,1.46,20.37,2.93,30.39,5.26,10.37,2.41,19.85,6.27,29.6,10.44a80.78,80.78,0,0,0,30,6.27c10.45.33,20.94-.3,31.14,2.42l-5.24-9.22c-.31,1.78-3,2.22-5.45,2.58a46.8,46.8,0,0,1-13.21-.41A275.33,275.33,0,0,1,196,434.61a471.51,471.51,0,0,1-51.79-16.37c-5.3-2-10.93,4.09-9.23,9.23,4,11.95,13.2,20.14,24.64,24.9a65.71,65.71,0,0,0,17.67,4.46c3.52.41,14.3-.11,14.1,5.37l3.72-6.47c-5.35,3.75-11.15-3-14.69-6.48a177,177,0,0,1-15.67-17.62l-10.6,10.6c2.17,2.79,4.46,5.45,6.89,8,6.64,7,17.24-3.59,10.61-10.61-2.43-2.57-4.72-5.23-6.9-8-2.51-3.22-8-2.59-10.6,0-3.19,3.12-2.48,7.43,0,10.6A175.42,175.42,0,0,0,167.93,458c4.34,4.4,9,9,14.64,11.66s12.14,3.2,17.75.4c6.76-3.36,7.43-10.44,4-16.7-6.6-11.89-20.6-9.78-31.83-12.51-9.54-2.32-19.73-7.47-23-17.38l-9.23,9.22a467.72,467.72,0,0,0,62.93,19c10.41,2.35,21.43,5.18,32.18,4.25,8.53-.74,19.15-3.87,20.87-13.67.69-4-1-8.1-5.24-9.23-14.76-3.95-29.84-1.52-44.77-3.64-7.51-1.07-14.18-4.19-21-7.19a140.77,140.77,0,0,0-21.43-7.45c-7.32-1.87-14.77-3.22-22.23-4.39s-16.69-4.63-21.38,3.23c-7.25,12.16,4.37,25.74,12.1,34.31a122.53,122.53,0,0,0,36.62,27.63c7.31,3.63,15.56-5.6,9.09-11.78l-18.52-17.7c-5.89-5.62-13.5.26-12.54,7.3.7,5.12,5.34,8.22,9.93,9.66,5.81,1.84,12,2.83,18,4.2,9.39,2.17,13.4-12.29,4-14.46Z" transform="translate(-87.51 -16.41)"/><path class="cls-2" d="M214.25,525.58,210,535.27c-.9,2.07-2,6.57-3.52,7.86l5.31-2.19-.8-.05,6.48,3.72c-1.78-2.71-2.47-7.09-3.21-10.2a81.73,81.73,0,0,1-1.95-11.2,91.5,91.5,0,0,1,.52-22.91c.62-4-1-8-5.24-9.23-3.54-1-8.61,1.24-9.23,5.24a107.26,107.26,0,0,0,2.82,47.26c2,6.58,6.55,16.85,15.15,10.76,3-2.14,4.05-5.59,5.47-8.84l5.38-12.34c1.64-3.74,1.07-8-2.69-10.26-3.16-1.89-8.64-1-10.26,2.69Z" transform="translate(-87.51 -16.41)"/><path class="cls-2" d="M141.77,423.38c-.6-.65-.68-.73-.21-.23-.42-.8-.48-.88-.2-.24a10.14,10.14,0,0,1-.37-1.44c.13.76.17.68.13-.24l-14,3.79,5.53,11.64c1.69,3.55,7.06,4.76,10.27,2.69,3.65-2.35,4.49-6.46,2.69-10.26l-5.54-11.64c-1.35-2.86-5.52-4.4-8.47-3.45a7.72,7.72,0,0,0-5.5,7.23,18.07,18.07,0,0,0,5,12.76,7.56,7.56,0,0,0,10.6,0,7.65,7.65,0,0,0,0-10.61Z" transform="translate(-87.51 -16.41)"/><path class="cls-3" d="M500.73,236.81c9.8,18.48,15,40.44,9.59,61.07-2.81,10.61-8.35,20.1-13.79,29.53q-9.07,15.75-18.16,31.48l14,3.79c-1.79-21.85,8-41.92,14.1-62.38,6.58-22.2,7.18-45.28,6.4-68.26-.33-9.63-15.33-9.67-15,0,.78,23,0,45.56-6.91,67.69-6.44,20.55-15.39,40.93-13.59,62.95.58,7.08,10,10.62,14,3.78,6.65-11.52,13.34-23,19.94-34.57,6-10.49,11.76-21.42,14.31-33.33,5.09-23.75-.68-48.17-11.88-69.32-4.52-8.53-17.48-1-13,7.57Z" transform="translate(-87.51 -16.41)"/><path class="cls-3" d="M484.12,339.69c-9.64,20.76-7.37,43.29-2.32,65,4.88,20.94,12.6,43,7.42,64.69-1.89,7.89-6.14,19.28-14.68,22.16-8.37,2.82-18.53-5.79-23.26-11.88-13.08-16.85-4-38.22-10.88-56.93-6.25-17-25.63-26.59-42.9-20.22-4.77,1.76-8.61,4.71-12.52,7.88A32.07,32.07,0,0,1,371.55,417a65.24,65.24,0,0,1-13.61,2c-4.2.07-6.21-1-5.34-5.61,3.18-17,27.81-21.09,41.74-20.56a51.73,51.73,0,0,1,24.9,7.06c7.67,4.66,11.53,12.31,18,18.16,8.73,7.88,20.95,7.72,28.87-1.31,8.25-9.4,7.14-23.17,9.14-34.76a179.49,179.49,0,0,1,27.13-68.27c5.33-8.09-7.66-15.61-12.95-7.58a190.92,190.92,0,0,0-27,63.4c-1.27,5.71-2.23,11.48-3,17.28-.73,5.57-.52,12-2.84,17.23-5.14,11.52-12.89-1.37-17.08-6.32-12.83-15.17-33.93-21.14-53.24-19.75-18.75,1.35-40.79,9.46-47.46,28.82-3.5,10.2-.53,22.37,10.5,26.07,4.52,1.51,9.39,1.24,14,.65,5.72-.74,11.55-1.5,17-3.41s10-5,14.53-8.59c3.47-2.79,6.9-5.33,11.45-5.85a18.83,18.83,0,0,1,19,10c4.52,9.24,2.6,20.76,3,30.68.42,10.58,2.92,20.86,9,29.66,12.05,17.42,37.41,30.12,54.22,11.28,17.58-19.72,15.66-48.76,10.36-72.74-5.44-24.61-16.39-52.68-5-77.27,4-8.7-8.88-16.33-12.95-7.57Z" transform="translate(-87.51 -16.41)"/><path class="cls-3" d="M501.13,273.91c3.46,18.29-3.66,36.6-9.72,53.55q-9.8,27.39-19.59,54.76c-3.12,8.73-5.94,17.3-4.76,26.69,1.1,8.77,5,16.61,7.48,25a69.24,69.24,0,0,1-4.1,49.06l13.71,5.78c8.08-27.76,15.21-60.36,6.38-88.75-1.41-4.51-6.77-7.1-11-4.48-13.67,8.42-8.45,23.5-6.76,36.4,1.48,11.39,1.29,24.83-6.15,34.31l12.54,3.31c-4.59-11.27-6.62-23.44-4.92-35.57L465,439.22c-1.05-1.11-1.3-1.29-.76-.56a19,19,0,0,1,.66,2.31c.46,1.83.79,3.71,1.13,5.57a96.05,96.05,0,0,1,1.41,12.09,79.25,79.25,0,0,1-.23,12.23,37.1,37.1,0,0,1-.83,5.46,10.69,10.69,0,0,1-.51,1.78c-.52.92-.14.81,1.14-.34l3.79,1c-1.16-.54-1.64-5.75-1.85-7.26a51.33,51.33,0,0,1-.23-10.66,48.31,48.31,0,0,1,6-19.52l-14-3.78a76.05,76.05,0,0,1-5.94,40.09l13.71,1.79c-3.41-8.45-4.36-17.08-3.83-26.14a110.48,110.48,0,0,1,1.58-13q.61-3.48,1.35-6.95c.23-1.09.47-2.19.73-3.28q1.84-3.63-4.8-1.13l-2.19-5.3a91.37,91.37,0,0,1,.13,15.34,21.22,21.22,0,0,1-.9,5.49,16.82,16.82,0,0,0-.74,1.65c-.09,1.84-3.52-.65,1.81.21l5.24,5.24a46.09,46.09,0,0,1,1.61-30.73l-13.71-1.8a47.79,47.79,0,0,1-3,37.58l11.78-1.52c-7.23-6.26-5.78-17.21-4.89-25.78l-11.28,6.48c2.39,1.58,1.26,8.85,1.23,11.12q-.17,9.74-.61,19.47l7.5-7.5-4.39-.32,7.23,5.51-5.55-20.55-1.93,7.3-.67.39L440.64,444a184.63,184.63,0,0,1,1,26.6l12.81-5.3c-1.07-.95-.18-6.28-.15-8.17a73.92,73.92,0,0,0-7.95-33.75l-11.78,9.09a38.9,38.9,0,0,1,12.47,43.17l13.71-1.8c-3.39-5-3.92-10.55-4.35-16.41-.48-6.82-1.12-13.54-3.08-20.12a148,148,0,0,0-8.3-20.42c-2.9-6.21-5.93-12.6-11.23-17.15-9.86-8.46-26.52-9.88-38.56-5.81-6.43,2.17-11.47,6.11-16.14,10.93-4.18,4.31-8.46,9.91-15.06,9.43l6.48,3.72a84.19,84.19,0,0,1-5.12-11.48c-.3-.8-.56-1.61-.8-2.43-.25-1.21-.4-.95-.46.76,1.52-.45,3-1.89,4.54-2.49a22,22,0,0,1,18.59,1.29l-1.51-11.78A87.45,87.45,0,0,1,358.1,409l9.23,9.22a26.68,26.68,0,0,1,5.55-13c6.1-7.34-4.22-18-10.6-10.61l-11.57,13.33c-6.3,7.26,4.26,17.92,10.6,10.61l11.57-13.33-10.6-10.61a40.93,40.93,0,0,0-9.41,19.65c-.84,5,3.32,11.46,9.22,9.22a106.82,106.82,0,0,0,34.28-20.91c3.53-3.2,2.58-9.54-1.51-11.78-12.48-6.82-30.69-6.89-41.38,3.66-6.33,6.26-3.52,14.07-.57,21.23,1.45,3.51,2.85,7.78,5.25,10.74,2.86,3.51,7.62,3.4,11.73,2.6C385,426,390.38,408.08,406,407.07c6.64-.44,14.84.12,19.47,5.52s7.59,13.56,10.32,20.15a77.15,77.15,0,0,1,5.61,24.72c.6,8.4,1.53,16.85,6.4,24a7.6,7.6,0,0,0,13.7-1.8c7-20.23.35-44.23-16.32-57.76-6.56-5.31-15.68,1.16-11.78,9.09a56.76,56.76,0,0,1,5.88,23.59c.19,7.51-1.8,15.69,4.56,21.37a7.6,7.6,0,0,0,12.8-5.31,184.63,184.63,0,0,0-1-26.6c-.58-5.18-4.31-8.1-9.5-7.23-6.43,1.08-8.79,6.83-7.37,12.62,1.54,6.26,3.37,12.47,5,18.69a7.71,7.71,0,0,0,7.24,5.5l4.39.32c4.17.3,7.33-3.68,7.5-7.5.38-8.59,1.06-17.39.62-26-.37-7.16-2.48-13.46-8.67-17.56-5.19-3.43-10.75,1.26-11.29,6.48-1.31,12.69-1.16,27.33,9.28,36.39,3.48,3,9.37,3,11.78-1.52a63,63,0,0,0,4.56-49.13c-1.77-5.46-11-8.16-13.71-1.8-5.82,13.57-7.16,28-3.12,42.3.65,2.31,2.72,4.83,5.23,5.24,12.09,2,17.41-8.78,18.56-19.12a82.44,82.44,0,0,0,.13-18c-.74-6.62-7.41-9.79-13.49-8-5.86,1.74-8.33,7.35-9.53,12.85-1.33,6.14-2.39,12.34-3.11,18.58-1.41,12.2-.81,24.8,3.82,36.3,2.11,5.22,10.74,8.34,13.71,1.79a90.51,90.51,0,0,0,8-47.66c-.76-6.82-10.08-10.93-14-3.79a64.13,64.13,0,0,0-7.93,36.38c.53,5.75,1.29,12.57,4.63,17.45a11.44,11.44,0,0,0,15.46,3.53c5-3.05,6.79-9.1,7.6-14.53a91.06,91.06,0,0,0,.77-20.8c-.8-10.05-1.22-27.8-13.27-31.05-3.53-.95-8.66,1.2-9.23,5.24-2.07,14.84-.75,29.6,4.92,43.55,1.85,4.54,8.64,8.27,12.54,3.31,7.82-10,11.15-21.65,11.2-34.27a103.4,103.4,0,0,0-1.76-18.24c-.72-4.07-4.16-13,.43-15.86l-11-4.48c8,25.82,1,55.57-6.37,80.78-2.32,8,9.95,13.58,13.71,5.78a86.14,86.14,0,0,0,7.2-54c-1.65-8.54-5.46-16.3-7.72-24.65-2.66-9.82.75-18.32,4.05-27.54,6.74-18.83,13.52-37.65,20.21-56.5s12.24-37.94,8.46-57.95c-1.79-9.48-16.25-5.46-14.47,4Z" transform="translate(-87.51 -16.41)"/><path class="cls-3" d="M277.82,459.64c-3.33,17.34-6.26,35.4-14.74,51.11-7.17,13.28-19.16,25.4-34.71,27.69-12.52,1.83-27.42-4.86-30.87-17.81-2.25-8.46,1.31-17.21,2.07-25.65a33.33,33.33,0,0,0-6.28-23.13c-5.35-7.3-12.81-12.49-20.46-17.13-3.65-2.21-7.35-4.35-10.85-6.8-2.62-1.83-8-5.28-8.85-8.54v4c-.61,2.71-3.39,2.09.61,1.7a39.88,39.88,0,0,1,4.89-.1,39.15,39.15,0,0,1,7.69,1,40.55,40.55,0,0,1,16.81,8.24,41.26,41.26,0,0,1,14.47,31.12c.16,12.67-2.28,26.23,5.46,37.38,3.46,5,8.57,9.11,14.9,9.22,5.72.1,11.66-2,16.56-4.82,22.35-12.74,25.66-39.25,37.72-59.58a44.44,44.44,0,0,1,4.51-6.54c1-1.1,2.23-1.87,3.19-2.89,1.9-2,.29.46,1.18-.36l-.63-1.28a25.38,25.38,0,0,1-1,2.94c-.37,1-.79,2-1.19,3q-2,5-4.34,9.94a191,191,0,0,1-17.9,31.12C248.43,514.05,239,524.11,228,531.29c-4.8,3.13-11,6.46-15.77,1.61-3.82-3.87-5.37-9.81-6.81-14.87l-12.53,7.3c6.62,8.15,16.6,13.68,27.19,14s20.08-5.48,26.68-13.43c7.18-8.65,12.22-19,17.6-28.75q9.82-17.88,19.28-36c4.47-8.54-8.47-16.14-12.95-7.57-9.81,18.74-19.33,38-30.57,55.93-3.8,6.08-8.83,13-16.29,14.51-8.08,1.66-15.48-3.36-20.34-9.33S189,515.23,191,522c2.8,9.89,7,21,16.74,26,12,6.17,24.28-.74,33.87-8.12,18.89-14.53,32.89-34.41,43.29-55.67,2.4-4.9,4.6-9.89,6.71-14.92,2.52-6,5.95-13,2.28-19.37-6.86-11.91-21.66-6.86-28.69,1.67-14.71,17.82-15.89,45.34-34.49,60.1-2.78,2.21-8.92,6.34-12.7,5.24s-5.17-8.66-5.55-11.79c-.8-6.56.27-13.24.19-19.81a56.09,56.09,0,0,0-3-17.94c-8.2-23.18-31-39.12-55.86-37.33-5.92.43-12.64,1.78-14.81,8.17-2.06,6,2.7,11.51,6.66,15.47,8.46,8.48,19.81,12.77,29,20.21,3.8,3.08,7.49,6.79,9.21,11.46,2.25,6.12.19,12.87-.86,19C180.77,517,182.22,529,190.8,539c17.49,20.41,47.43,17.4,66.84,1.86C281,522.15,287,491.39,292.28,463.63c1.81-9.43-12.64-13.47-14.46-4Z" transform="translate(-87.51 -16.41)"/><path class="cls-3" d="M161.4,454c11.68,5.46,22.37,11.47,25.36,24.93,1.46,6.54,1.43,13.36,1.72,20l1.06,24.66c.42,9.61,15.42,9.66,15,0Q204,509.8,203.35,496c-.35-8.06-.6-16.39-2.93-24.17C195.74,456.24,183,447.62,169,441.06c-8.69-4.06-16.31,8.86-7.57,12.95Z" transform="translate(-87.51 -16.41)"/><path class="cls-4" d="M470.91,409.34c1.78,13.78,4.82,28.05,4.5,42-.09,3.92-.55,12.94-4.57,15.27.43-.25,1.47.72.06-.29a15.65,15.65,0,0,1-2.53-2.67c-2.33-2.82-4.41-5.89-6.61-8.82-2.45-3.27-6.45-4.86-10.26-2.69-3.22,1.83-5.12,7-2.69,10.26,5,6.7,10.12,16.37,18.81,18.68,9.4,2.5,16.4-5.13,19.61-13,3.48-8.54,3.59-18,2.69-27-1.05-10.59-2.65-21.14-4-31.69-.52-4-3.08-7.5-7.5-7.5-3.65,0-8,3.46-7.5,7.5Z" transform="translate(-87.51 -16.41)"/><path class="cls-4" d="M470.35,411c-1.3,4.63-.71,9.08-.51,13.81a114.44,114.44,0,0,1-.33,14.81c-.37,4.19-1.8,7.95-2.47,12-1.3,1.52-1,1.76.81.69-1-.45-1.92-.93-2.85-1.45-2.32-1.19-4.62-2.42-6.93-3.63-5.3-2.77-13.44,1.94-11,8.47,5.64,15.19,25.41,14,32.65.72,4.12-7.56,3.65-15.86,2.81-24.14-.45-4.4-.78-8.8-.93-13.22-.07-2.21-.11-4.42-.1-6.62,0-1.26,0-2.53,0-3.79q.3-3.71-3.11,1.93l-5.77-.75q-2.08-2.13-.57.89c.35,1.19.65,2.39.91,3.6.55,2.42.92,4.88,1.32,7.33.63,3.95,1.27,7.9,1.89,11.85,1.21,7.76,2.67,16.58-.86,23.95-4.14,8.66,8.79,16.28,13,7.57,5.75-12,4.12-24.46,2.09-37.2-1.4-8.81-1.7-32.91-15-31.84-6.77.56-8.65,6.92-8.9,12.67a158.58,158.58,0,0,0,.69,20.79c.54,5.93,2.34,13.09-.13,18.79-.6,1.37-1.75,3.29-3.32,3.71-1.12.31-2.41-.64-2.25-.22l-11,8.47c5.7,3,12.61,8.19,19.4,6.91,6.35-1.2,10.05-6.72,12.07-12.47s2.47-12.56,2.8-18.67c.21-3.7.23-7.41.07-11.11-.14-3.22-.9-6.7,0-9.82,2.61-9.31-11.85-13.29-14.46-4Z" transform="translate(-87.51 -16.41)"/><path class="cls-4" d="M259.57,493.62c-3.6,14.37-8.52,30.63-22.17,38.57-12.46,7.26-26.61,1.58-35.21-8.8l1.93,7.3.28-.77L201,534.41l.71-.45-3.79,1,.82.08c9.61.85,9.55-14.16,0-15-4.56-.41-7.57,2.68-9,6.64-1,2.62.3,5.34,1.93,7.3,12.27,14.78,33,21,50.69,12.56,19-9,27-29.91,31.76-48.95,2.34-9.37-12.12-13.36-14.46-4Z" transform="translate(-87.51 -16.41)"/><path class="cls-4" d="M232.36,428.32c18.37-5.29,35.91-11.3,44.23-30.08,7.12-16.06,7.59-34.24,19.14-48.28s28.71-23.27,46-28.35c21.53-6.34,44.73-1.79,66.65.13l19.79,1.74c5.89.52,12.66,2.08,18.42.26,5.38-1.69,8-6.34,9.79-11.33,2.3-6.43,4.26-13,6.38-19.48,3-9.19-11.47-13.13-14.46-4L443,305c-.26.8-1.17,4.46-1.41,4.65-.56.42-5.11-.4-6.55-.53l-33.64-2.95c-21.33-1.88-42.76-5.18-63.71,1-17.19,5.08-34,13.72-47,26.2a72.76,72.76,0,0,0-15.59,21.32c-3.66,7.87-5.67,16.2-7.9,24.55-2.29,8.53-4.95,17.55-11.91,23.5-7.46,6.37-17.78,8.5-27,11.15s-5.32,17.14,4,14.46Z" transform="translate(-87.51 -16.41)"/><path class="cls-4" d="M124.84,447.46c-6.28-6.17-12.51-12.4-15.67-20.8-2.15-5.73-5-15.72,0-20.63s14-5.66,20.66-5.85a63.76,63.76,0,0,1,27.48,5.28c3.73,1.64,8,1.06,10.26-2.69,1.9-3.18,1-8.64-2.69-10.27-11.62-5.12-24.08-7.94-36.84-7.25-10.64.59-22.85,2.86-30.38,11.11-7.88,8.63-7,21.48-3.78,31.95,3.68,12,11.49,21.1,20.31,29.75,6.89,6.77,17.5-3.83,10.6-10.6Z" transform="translate(-87.51 -16.41)"/></svg>